<svg xmlns="http://www.w3.org/2000/svg" viewBox="0 0 800 450" role="img" aria-labelledby="title desc">
  <title id="title">MixSearch medical segmentation overview</title>
  <desc id="desc">Architecture search paths and medical image segmentation masks.</desc>
  <rect width="800" height="450" fill="#f7f9ff"/>
  <rect x="78" y="72" width="644" height="306" rx="18" fill="#ffffff" stroke="#dce2f1"/>
  <g fill="#dfe7fb" stroke="#6f87c9" stroke-width="3">
    <circle cx="170" cy="176" r="30"/>
    <circle cx="278" cy="132" r="30"/>
    <circle cx="278" cy="220" r="30"/>
    <circle cx="386" cy="176" r="30"/>
  </g>
  <g stroke="#6f87c9" stroke-width="6" stroke-linecap="round">
    <path d="M200 176 L248 132"/>
    <path d="M200 176 L248 220"/>
    <path d="M308 132 L356 176"/>
    <path d="M308 220 L356 176"/>
  </g>
  <rect x="482" y="122" width="164" height="164" rx="16" fill="#eef2ff" stroke="#6f87c9" stroke-width="3"/>
  <path d="M520 254 C500 202 532 162 574 176 C620 192 622 242 588 262 C562 276 536 274 520 254 Z" fill="#d86666" opacity=".72"/>
  <path d="M526 248 C512 210 536 184 570 192 C602 202 604 236 580 250 C558 262 538 262 526 248 Z" fill="#ffffff" opacity=".85"/>
  <text x="124" y="344" fill="#2f3e67" font-family="Helvetica, Arial, sans-serif" font-size="40" font-weight="700">MixSearch</text>
  <text x="320" y="344" fill="#697491" font-family="Helvetica, Arial, sans-serif" font-size="21">domain-generalized medical segmentation</text>
</svg>
