<svg xmlns="http://www.w3.org/2000/svg" viewBox="0 0 800 450" role="img" aria-labelledby="title desc">
  <title id="title">MotionCache video caching overview</title>
  <desc id="desc">A grid of video frames with motion-aware cached tokens.</desc>
  <rect width="800" height="450" fill="#f7faf8"/>
  <rect x="74" y="70" width="652" height="310" rx="18" fill="#ffffff" stroke="#d5e5dc"/>
  <g fill="#e8f4ee" stroke="#80ad94" stroke-width="3">
    <rect x="114" y="128" width="126" height="86" rx="10"/>
    <rect x="266" y="128" width="126" height="86" rx="10"/>
    <rect x="418" y="128" width="126" height="86" rx="10"/>
    <rect x="570" y="128" width="126" height="86" rx="10"/>
    <rect x="114" y="236" width="126" height="86" rx="10"/>
    <rect x="266" y="236" width="126" height="86" rx="10"/>
    <rect x="418" y="236" width="126" height="86" rx="10"/>
    <rect x="570" y="236" width="126" height="86" rx="10"/>
  </g>
  <path d="M164 276 C248 188 340 314 430 222 S590 156 652 198" fill="none" stroke="#0f7a55" stroke-width="12" stroke-linecap="round"/>
  <g fill="#0f7a55">
    <circle cx="164" cy="276" r="13"/>
    <circle cx="318" cy="254" r="13"/>
    <circle cx="476" cy="202" r="13"/>
    <circle cx="652" cy="198" r="13"/>
  </g>
  <text x="104" y="116" fill="#143529" font-family="Helvetica, Arial, sans-serif" font-size="38" font-weight="700">MotionCache</text>
  <text x="104" y="356" fill="#547165" font-family="Helvetica, Arial, sans-serif" font-size="21">motion-aware token reuse for video generation</text>
</svg>
