<svg xmlns="http://www.w3.org/2000/svg" viewBox="0 0 800 450" role="img" aria-labelledby="title desc">
  <title id="title">Seedance audio visual generation overview</title>
  <desc id="desc">Audio and video streams join into a generated scene.</desc>
  <rect width="800" height="450" fill="#f8fafc"/>
  <rect x="76" y="68" width="648" height="314" rx="18" fill="#ffffff" stroke="#dbe4ef"/>
  <rect x="118" y="122" width="228" height="172" rx="16" fill="#e7f1ff" stroke="#4f87c9" stroke-width="3"/>
  <path d="M140 260 C174 202 214 236 248 184 S306 174 324 142" fill="none" stroke="#4f87c9" stroke-width="9" stroke-linecap="round"/>
  <g fill="#ea5b5b">
    <rect x="416" y="132" width="18" height="116" rx="9"/>
    <rect x="448" y="104" width="18" height="172" rx="9"/>
    <rect x="480" y="150" width="18" height="80" rx="9"/>
    <rect x="512" y="118" width="18" height="144" rx="9"/>
    <rect x="544" y="160" width="18" height="60" rx="9"/>
  </g>
  <path d="M358 208 H394" stroke="#7c8794" stroke-width="8" stroke-linecap="round"/>
  <path d="M588 208 H658" stroke="#7c8794" stroke-width="8" stroke-linecap="round"/>
  <path d="M636 180 L668 208 L636 236" fill="none" stroke="#7c8794" stroke-width="8" stroke-linecap="round" stroke-linejoin="round"/>
  <text x="118" y="346" fill="#243143" font-family="Helvetica, Arial, sans-serif" font-size="42" font-weight="700">Seedance 1.5 Pro</text>
  <text x="118" y="374" fill="#627083" font-family="Helvetica, Arial, sans-serif" font-size="20">native audio-visual joint generation</text>
</svg>
