<svg xmlns="http://www.w3.org/2000/svg" viewBox="0 0 800 450" role="img" aria-labelledby="title desc">
  <title id="title">SparseByteNN mobile sparsity overview</title>
  <desc id="desc">Sparse grouped blocks flowing into a mobile inference engine.</desc>
  <rect width="800" height="450" fill="#f8fbfa"/>
  <rect x="78" y="72" width="644" height="306" rx="18" fill="#ffffff" stroke="#d8e7e2"/>
  <g transform="translate(128 126)">
    <g fill="#e0efe9">
      <rect x="0" y="0" width="42" height="42" rx="6"/>
      <rect x="52" y="0" width="42" height="42" rx="6"/>
      <rect x="104" y="0" width="42" height="42" rx="6"/>
      <rect x="156" y="0" width="42" height="42" rx="6"/>
      <rect x="0" y="52" width="42" height="42" rx="6"/>
      <rect x="52" y="52" width="42" height="42" rx="6"/>
      <rect x="104" y="52" width="42" height="42" rx="6"/>
      <rect x="156" y="52" width="42" height="42" rx="6"/>
      <rect x="0" y="104" width="42" height="42" rx="6"/>
      <rect x="52" y="104" width="42" height="42" rx="6"/>
      <rect x="104" y="104" width="42" height="42" rx="6"/>
      <rect x="156" y="104" width="42" height="42" rx="6"/>
    </g>
    <g fill="#1b8a64">
      <rect x="0" y="0" width="42" height="42" rx="6"/>
      <rect x="104" y="0" width="42" height="42" rx="6"/>
      <rect x="52" y="52" width="42" height="42" rx="6"/>
      <rect x="156" y="104" width="42" height="42" rx="6"/>
    </g>
  </g>
  <rect x="474" y="118" width="144" height="210" rx="26" fill="#263540"/>
  <rect x="494" y="150" width="104" height="132" rx="10" fill="#e0efe9"/>
  <circle cx="546" cy="304" r="8" fill="#e0efe9"/>
  <path d="M356 220 H440" stroke="#1b8a64" stroke-width="10" stroke-linecap="round"/>
  <path d="M414 188 L448 220 L414 252" fill="none" stroke="#1b8a64" stroke-width="10" stroke-linecap="round" stroke-linejoin="round"/>
  <text x="116" y="354" fill="#20342e" font-family="Helvetica, Arial, sans-serif" font-size="38" font-weight="700">SparseByteNN</text>
</svg>
